<svg xmlns="http://www.w3.org/2000/svg" viewBox="0 0 87.76 64.05"><defs><style>.cls-1{fill:#fff;}</style></defs><g id="Capa_2" data-name="Capa 2"><g id="Capa_1-2" data-name="Capa 1"><path class="cls-1" d="M17.49,1.31a9.27,9.27,0,0,1,4.59,1.06,8.37,8.37,0,0,1,3,2.79,9.76,9.76,0,0,1,1.42,4,13.36,13.36,0,0,1-.22,4.65,17.21,17.21,0,0,1-5.39,9,19.54,19.54,0,0,1-5.21,3.29,23.16,23.16,0,0,1-6.94,1.76,2.76,2.76,0,0,1-.24.83.58.58,0,0,1-.56.39A3,3,0,0,1,7,28.82a8.29,8.29,0,0,1-1.31-.75,5.39,5.39,0,0,1-2.14-.38,5.05,5.05,0,0,1-1.36-.85A1.91,1.91,0,0,1,1.63,26c-.06-.25,0-.37.16-.37a2.27,2.27,0,0,1,.64.08,3.56,3.56,0,0,1,.49.19,2.73,2.73,0,0,0,.55.19,2.83,2.83,0,0,0,.78.08h.11l.12,0c.12-.34.38-.95.78-1.84s.87-1.92,1.42-3.13,1.16-2.54,1.82-4,1.3-2.94,1.92-4.44,1.2-3,1.75-4.44,1-2.81,1.32-4.05A23.6,23.6,0,0,0,9.75,6.57a21.92,21.92,0,0,0-3.31,3,15.91,15.91,0,0,0-2.36,3.45,7.76,7.76,0,0,0-.91,3.53,3.92,3.92,0,0,0,.11,1.09,3.1,3.1,0,0,0,.22.59,2.89,2.89,0,0,0,.22.34.44.44,0,0,1,.12.32c0,.3-.21.39-.61.28a3.1,3.1,0,0,1-1.33-.84A6.69,6.69,0,0,1,.59,16.43a7.09,7.09,0,0,1-.59-3,4.55,4.55,0,0,1,.5-1.87A11.31,11.31,0,0,1,1.9,9.29,20.38,20.38,0,0,1,4.09,6.94,20.73,20.73,0,0,1,6.94,4.73a23.85,23.85,0,0,1,3.35-1.82A19.34,19.34,0,0,1,14,1.69c0-.17,0-.34,0-.51s0-.34,0-.51a.58.58,0,0,1,.33-.61,1.42,1.42,0,0,1,.82,0,3.68,3.68,0,0,1,1,.48,5.35,5.35,0,0,1,.91.77Zm-7.32,23.6a18.92,18.92,0,0,0,4.33-2.18,22.72,22.72,0,0,0,3.66-3.07A24,24,0,0,0,21,16.07a20.76,20.76,0,0,0,1.9-3.76,12.87,12.87,0,0,0,.81-3.57,6.67,6.67,0,0,0-.38-3,4.25,4.25,0,0,0-1.71-2.06,5.85,5.85,0,0,0-3.18-.77h0c-.13.4-.39,1.12-.79,2.16s-.85,2.24-1.39,3.61-1.09,2.85-1.69,4.43l-1.74,4.6c-.57,1.49-1.09,2.87-1.57,4.14s-.85,2.29-1.1,3.06"/><path class="cls-1" d="M44.82,17.1c.17-.25.31-.35.42-.28a.57.57,0,0,1,.24.38,2.08,2.08,0,0,1,.06.62.93.93,0,0,1-.08.44c-.21.34-.51.8-.91,1.39s-.85,1.23-1.36,1.93S42.13,23,41.55,23.74s-1.19,1.41-1.79,2A12.5,12.5,0,0,1,38,27.3a3.86,3.86,0,0,1-1.62.71h-.19a8.42,8.42,0,0,1-.9-.1A5.77,5.77,0,0,1,34,27.54a3.26,3.26,0,0,1-1.15-.78,1.69,1.69,0,0,1-.41-1.37,4.8,4.8,0,0,1,.08-.48c0-.17.08-.38.14-.61-.38.49-.76.95-1.13,1.39s-.73.83-1.08,1.17a7,7,0,0,1-.94.81,1.38,1.38,0,0,1-.72.3,4.65,4.65,0,0,1-1.47-.28,5.92,5.92,0,0,1-1.55-.82,4.56,4.56,0,0,1-1.18-1.26,2.63,2.63,0,0,1-.4-1.63,8.33,8.33,0,0,1,.46-1.73c.27-.74.6-1.56,1-2.46S26.47,18,27,17.07s1-1.75,1.57-2.51a12.28,12.28,0,0,1,1.57-1.85,2.17,2.17,0,0,1,1.4-.72,4.59,4.59,0,0,1,1.6.27,6.21,6.21,0,0,1,1.36.69,7.28,7.28,0,0,1,1.12.91,11.46,11.46,0,0,1,.85.94,10.36,10.36,0,0,0,.7-2,.51.51,0,0,1,.61-.54,2.68,2.68,0,0,1,1.21.41,5,5,0,0,1,1.15,1,1.45,1.45,0,0,1,.48,1,8.89,8.89,0,0,1-.48,1.72c-.3.86-.65,1.83-1,2.92L37.84,22.6c-.42,1.11-.75,2-1,2.79-.17.55-.12.83.16.83a1.64,1.64,0,0,0,.91-.47,12.8,12.8,0,0,0,1.26-1.23c.47-.51,1-1.09,1.49-1.72s1-1.3,1.54-2,1-1.34,1.43-2,.86-1.21,1.2-1.73M28.81,26a1.37,1.37,0,0,0,.78-.48,13,13,0,0,0,1.12-1.26c.41-.52.85-1.1,1.29-1.74s.89-1.28,1.31-1.92.82-1.25,1.19-1.82l.89-1.44c.11-.3.22-.58.34-.85s.23-.52.33-.78a5.2,5.2,0,0,0-.88-.35,3.54,3.54,0,0,0-1.13-.16c-.3,0-.67.26-1.12.8a13.53,13.53,0,0,0-1.37,2,27.34,27.34,0,0,0-1.35,2.6c-.42.94-.78,1.81-1.07,2.61a11.62,11.62,0,0,0-.56,2c-.08.53,0,.79.23.79"/><path class="cls-1" d="M61.58,17.08c.17-.25.3-.36.4-.3a.56.56,0,0,1,.22.37,2.08,2.08,0,0,1,.06.62c0,.22,0,.37-.11.43-.28.37-.69.9-1.25,1.6S59.7,21.28,59,22.11s-1.56,1.69-2.44,2.56a29.83,29.83,0,0,1-2.72,2.39A17.87,17.87,0,0,1,51,28.82a5.81,5.81,0,0,1-2.59.69,2.9,2.9,0,0,1-1.14-.22,3.52,3.52,0,0,1-.86-.55,3,3,0,0,1-.61-.69,2.75,2.75,0,0,1-.34-.69,7.94,7.94,0,0,1-1-.16,5.08,5.08,0,0,1-1.23-.41,2.94,2.94,0,0,1-1-.79A1.65,1.65,0,0,1,42,24.74a8.77,8.77,0,0,1,.65-2.2c.42-1.07.92-2.35,1.52-3.81L46,14.06c.68-1.66,1.32-3.25,1.93-4.79s1.12-2.91,1.54-4.14a15.3,15.3,0,0,0,.72-2.73.51.51,0,0,1,.6-.55,3,3,0,0,1,1.22.4,5.19,5.19,0,0,1,1.17,1,1.48,1.48,0,0,1,.49,1,10.56,10.56,0,0,1-.46,1.55c-.29.84-.65,1.88-1.09,3.1s-.93,2.58-1.47,4-1.08,2.93-1.62,4.36c.41-.64.84-1.28,1.3-1.91a21.51,21.51,0,0,1,1.36-1.7A10.27,10.27,0,0,1,53,12.47,1.79,1.79,0,0,1,54.06,12a4.55,4.55,0,0,1,1.9.34,2.86,2.86,0,0,1,1.2.91,3.25,3.25,0,0,1,.61,1.36,6.13,6.13,0,0,1,.1,1.68A10.07,10.07,0,0,1,57.5,18a18.07,18.07,0,0,1-.82,2.21c-.34.79-.73,1.6-1.18,2.43A25.38,25.38,0,0,1,54,25.06q1.13-1,2.25-2.07c.76-.74,1.48-1.46,2.15-2.18s1.28-1.4,1.84-2a21.2,21.2,0,0,0,1.31-1.68M46,26.6a4.89,4.89,0,0,0,2.15-1.23A16.54,16.54,0,0,0,50.27,23a29.4,29.4,0,0,0,1.95-3,31.83,31.83,0,0,0,1.52-2.89,13.31,13.31,0,0,0,.83-2.21c.15-.58.12-.88-.09-.88a2,2,0,0,0-1.15.48A9.1,9.1,0,0,0,52,15.75c-.46.52-.94,1.11-1.42,1.77s-.94,1.33-1.39,2-.87,1.35-1.26,2-.73,1.2-1,1.69c-.28.79-.49,1.43-.65,1.94s-.26.8-.28.91a1,1,0,0,0,0,.3,2.27,2.27,0,0,1,0,.24"/><path class="cls-1" d="M77.34,17.1c.17-.25.3-.35.4-.28a.65.65,0,0,1,.22.38,2.07,2.07,0,0,1,.07.62,1.3,1.3,0,0,1-.08.44L77,19.69c-.41.62-.88,1.29-1.41,2s-1.1,1.45-1.71,2.21a23.32,23.32,0,0,1-1.84,2,12,12,0,0,1-1.8,1.49,3.08,3.08,0,0,1-1.62.58,2,2,0,0,1-1.37-.55A5.4,5.4,0,0,1,66.1,26a12.94,12.94,0,0,1-1-2,23.33,23.33,0,0,1-.75-2.37c-.49,1.41-.9,2.58-1.22,3.52a14.49,14.49,0,0,0-.51,1.66,1.11,1.11,0,0,0,0,.37c0,.07,0,.14.05.19a.2.2,0,0,1,0,.15.91.91,0,0,1-.16.19,1.87,1.87,0,0,1-.83.27,3.65,3.65,0,0,1-1.39-.05,2.45,2.45,0,0,1-1.24-.7,2.13,2.13,0,0,1-.44-1.73,8.82,8.82,0,0,1,.55-2c.34-.92.75-2,1.24-3.3s1-2.69,1.6-4.22,1.12-3.11,1.63-4.7,1-3.17,1.36-4.72a24.8,24.8,0,0,0,.75-4.3c0-.38.31-.53.79-.45a5.06,5.06,0,0,1,1.56.61,6.91,6.91,0,0,1,1.52,1.15,1.67,1.67,0,0,1,.64,1.15A10.75,10.75,0,0,1,70,5.87c-.19.6-.44,1.36-.75,2.27s-.67,1.92-1.07,3-.82,2.3-1.25,3.52a20.87,20.87,0,0,1,1.59-1.51,13.11,13.11,0,0,1,1.75-1.29,11.05,11.05,0,0,1,1.83-.9,5.16,5.16,0,0,1,1.77-.33,1.24,1.24,0,0,1,1.18.61,2.27,2.27,0,0,1,.21,1.55,6.62,6.62,0,0,1-.73,2.07,8.73,8.73,0,0,1-1.67,2.19A10.7,10.7,0,0,1,70.22,19a10.26,10.26,0,0,1-3.47,1.11,16,16,0,0,0,.68,2,12.6,12.6,0,0,0,.78,1.6A4.77,4.77,0,0,0,69,24.73a1.24,1.24,0,0,0,.82.4,2.87,2.87,0,0,0,1.74-.83,17,17,0,0,0,2-2.05c.67-.81,1.33-1.68,2-2.6l1.78-2.55m-3.81-3.67a.37.37,0,0,0-.45-.28,4.66,4.66,0,0,0-.91.41,10.62,10.62,0,0,0-1.29.82c-.48.34-1,.73-1.47,1.15s-1,.88-1.46,1.35a12.24,12.24,0,0,0-1.23,1.44,6.35,6.35,0,0,0,2.52-.63,12.78,12.78,0,0,0,2.21-1.37,6.52,6.52,0,0,0,1.41-1.26,2.51,2.51,0,0,0,.67-1.63"/><path class="cls-1" d="M87.17,23.67a28,28,0,0,1-2.4,2.15,14.13,14.13,0,0,1-2.46,1.58A5.32,5.32,0,0,1,80,28a3.83,3.83,0,0,1-1.68-.44,6.88,6.88,0,0,1-1.61-1.08,6.68,6.68,0,0,1-1.2-1.39,2.1,2.1,0,0,1-.4-1.31,13.41,13.41,0,0,1,.59-2.88,16.55,16.55,0,0,1,1.15-2.73,19.59,19.59,0,0,1,1.52-2.43,13.39,13.39,0,0,1,1.71-1.95,9.13,9.13,0,0,1,1.74-1.3A3.31,3.31,0,0,1,83.38,12a3.43,3.43,0,0,1,1.73.48,5.15,5.15,0,0,1,1.42,1.2,6.32,6.32,0,0,1,.93,1.55,3.64,3.64,0,0,1,.3,1.5,4.32,4.32,0,0,1-.62,1.65,9.1,9.1,0,0,1-1.43,1.85,9.32,9.32,0,0,1-1.91,1.52,4.09,4.09,0,0,1-2.15.64,6.45,6.45,0,0,1-1.13-.08,4,4,0,0,1-.91-.24,13.46,13.46,0,0,0-.51,1.62A5.88,5.88,0,0,0,78.89,25a1.57,1.57,0,0,0,.19.89.71.71,0,0,0,.66.34,5,5,0,0,0,2.07-.5A12.52,12.52,0,0,0,84,24.46a21,21,0,0,0,2.18-1.82s.58-.48,1,0a.85.85,0,0,1,0,1m-2.45-9.28a1.67,1.67,0,0,0-1,.46,9,9,0,0,0-1.2,1.24,19.71,19.71,0,0,0-1.29,1.8c-.44.69-.87,1.39-1.28,2.12a4.72,4.72,0,0,0,2.86-.92A10.09,10.09,0,0,0,84.64,17a3.41,3.41,0,0,0,.74-1.86c0-.51-.27-.76-.66-.76"/><path class="cls-1" d="M40.2,47.61a1.6,1.6,0,0,1,.63.91,2.55,2.55,0,0,1,0,1A3,3,0,0,1,40,51.19a3.53,3.53,0,0,1-1.21.89c-.41,1.4-.78,2.71-1.1,3.93a33,33,0,0,0-.7,3.3,4.33,4.33,0,0,0-.09.81,1.81,1.81,0,0,0,.06.66c.05.22-.13.44-.52.66a3.39,3.39,0,0,1-1.65.33,4,4,0,0,1-.92-.13,2.59,2.59,0,0,1-1-.51A2.62,2.62,0,0,1,32,60.07a3.3,3.3,0,0,1-.11-1.82,5.7,5.7,0,0,1,.27-1.12c.16-.5.36-1.1.59-1.8s.51-1.47.83-2.33.66-1.77,1-2.75H34c-.76,0-1.59.07-2.5.15s-1.85.17-2.82.29q-1.8,2.16-3.64,4.11c-1.22,1.3-4.39,4.69-5.55,5.67a27.79,27.79,0,0,1-3.79,2.72,6.27,6.27,0,0,1-2.88.86,7.32,7.32,0,0,1-2.06-.25,4.13,4.13,0,0,1-1.28-.62A3.6,3.6,0,0,1,8.76,62a1.3,1.3,0,0,1-.13-.64.33.33,0,0,1,.2-.31.94.94,0,0,1,.41,0l.53.15a2.19,2.19,0,0,0,.66.09,6.13,6.13,0,0,0,2.51-.59,14.33,14.33,0,0,0,2.77-1.64,32.25,32.25,0,0,0,3-2.47c1-.94,4.58-4.18,5.6-5.29l-2.66.35a15.87,15.87,0,0,1-2,.17,3.16,3.16,0,0,1-1.67-.37A2.64,2.64,0,0,1,17,50.6a2.56,2.56,0,0,1-.39-1,2.1,2.1,0,0,1,0-.72c0-.39.11-.62.19-.68s.22-.05.46,0,.6.17,1.12.29a9.27,9.27,0,0,0,2.16.19,26.72,26.72,0,0,0,3.1-.3c1.19-.17,2.44-.36,3.76-.58q2.2-2.61,4.28-5.32c1.38-1.82,2.65-3.52,3.82-5.12l3.08-4.26c.89-1.24,1-1.4,1.55-2a.51.51,0,0,1,0-.25c.07-.44.35-.6.82-.48a4.34,4.34,0,0,1,1.54.81A7.76,7.76,0,0,1,44,32.64a2.47,2.47,0,0,1,.6,2.27c-.31.88-.69,2-1.16,3.28s-1,2.78-1.54,4.41-1.12,3.29-1.69,5m-4.33-1q.91-2.53,1.8-5.19c.59-1.77,1.13-3.51,1.62-5.19-.93,1.42-2.06,3.07-3.38,5s-2.75,3.86-4.29,5.89c.78-.12,1.53-.23,2.25-.31s1.39-.14,2-.17"/><path class="cls-1" d="M53.16,56.64c-.54,1.72-3,3.59-4.1,3.59-.2,0-.54-.18-.54-.81,0-2.25,1.87-6.28,2.79-8.44l.27-.64a10.16,10.16,0,0,0,.94-2.9,1.15,1.15,0,0,0,0-.34,5.06,5.06,0,0,0-2.25-2.38,6.09,6.09,0,0,0-2.09.18c-.4.07-.8.14-1.23.19a4.58,4.58,0,0,0,.6-1.87,1.2,1.2,0,0,0-1.32-1,1.74,1.74,0,0,0-1.52.89,6.33,6.33,0,0,0-.64,2.1,1.83,1.83,0,0,0,.45,1.41c-.86,1.77-1.25,2.54-2.51,5a.73.73,0,0,0-.11.33.64.64,0,0,0,.42.72.66.66,0,0,0,.38.09.87.87,0,0,0,.71-.48c1.21-2.28,1.7-3.24,2.46-4.89a3.51,3.51,0,0,0,.55,0,9.18,9.18,0,0,0,1.51-.17l.29-.05-.49,1.14c-1.26,3-3.17,7.44-3.38,10.41a4.46,4.46,0,0,0,.28,2C45.19,62,47.11,62,48.15,62A6.78,6.78,0,0,0,53,59.37c1-1.3.67-4.37.15-2.73"/><path class="cls-1" d="M75.9,57.33a33.09,33.09,0,0,1-2.76,2.46,15.91,15.91,0,0,1-2.82,1.81,6,6,0,0,1-2.66.7,4.36,4.36,0,0,1-1.93-.5,8.2,8.2,0,0,1-1.85-1.24A7.79,7.79,0,0,1,62.5,59,2.41,2.41,0,0,1,62,57.45a15.5,15.5,0,0,1,.68-3.3A20.38,20.38,0,0,1,64,51a24.32,24.32,0,0,1,1.74-2.79,16.28,16.28,0,0,1,2-2.23,10.25,10.25,0,0,1,2-1.49,3.74,3.74,0,0,1,1.8-.55,3.9,3.9,0,0,1,2,.55,6,6,0,0,1,1.63,1.38,6.91,6.91,0,0,1,1.07,1.78,4.29,4.29,0,0,1,.35,1.72,5,5,0,0,1-.72,1.89,10.41,10.41,0,0,1-1.63,2.13A11.3,11.3,0,0,1,72,55.14a4.66,4.66,0,0,1-2.46.74,7.31,7.31,0,0,1-1.3-.1,5.09,5.09,0,0,1-1-.27,18.48,18.48,0,0,0-.59,1.85,6.77,6.77,0,0,0-.24,1.51,1.86,1.86,0,0,0,.22,1,.83.83,0,0,0,.75.38,5.75,5.75,0,0,0,2.39-.57,14.68,14.68,0,0,0,2.51-1.48,23.79,23.79,0,0,0,2.5-2.1.83.83,0,0,1,1.14,1.2m-2.61-10.5a1.79,1.79,0,0,0-1.08.5,9.45,9.45,0,0,0-1.3,1.35,21.83,21.83,0,0,0-1.41,2c-.48.75-.94,1.52-1.39,2.32a5,5,0,0,0,3.23-1,9.72,9.72,0,0,0,1.83-2.19A3.39,3.39,0,0,0,74,47.7c0-.56-.26-.87-.68-.87"/><path class="cls-1" d="M67.55,49.59a.73.73,0,0,0-.28-.45c-.12-.07-.28,0-.47.34-.42.58-.89,1.25-1.42,2s-1.07,1.5-1.65,2.27S62.57,55.28,62,56s-1.16,1.41-1.69,2a13.27,13.27,0,0,1-1.45,1.41,2,2,0,0,1-1,.53c-.34,0-.41-.34-.22-1l1.18-3.37c.49-1.4,1-2.91,1.58-4.53s1.14-3.29,1.74-5,1.15-3.25,1.67-4.7l.88-2.53c.34-.93.61-1.71.79-2.35a11.66,11.66,0,0,0,.31-1.21,1.31,1.31,0,0,0-.31-.84,5.06,5.06,0,0,0-.92-.94,9.86,9.86,0,0,0-1.23-.84A5.9,5.9,0,0,0,62,32.08,2.13,2.13,0,0,0,61,32a.51.51,0,0,0-.44.51,32.89,32.89,0,0,1-.49,3.27c-.24,1.15-.52,2.35-.87,3.6l-.88,2.86q-.87,2.79-1.89,5.5c-.67,1.81-1.29,3.48-1.87,5s-1.06,2.84-1.45,3.95A12.85,12.85,0,0,0,52.48,59,2,2,0,0,0,53,60.56a4,4,0,0,0,1.32.92,6.42,6.42,0,0,0,1.51.44,8.69,8.69,0,0,0,1,.11l.13,0,.13,0a3.76,3.76,0,0,0,1.83-.79,17.22,17.22,0,0,0,2-1.76A29.54,29.54,0,0,0,63,57.13c.67-.85,1.31-1.67,1.9-2.48S66,53.1,66.48,52.43s.8-1.21,1-1.6a1.36,1.36,0,0,0,.09-.53,2.32,2.32,0,0,0-.07-.71"/><path class="cls-1" d="M82.34,35.51a.34.34,0,0,0-.13.3,1,1,0,0,1-.09.47,2.5,2.5,0,0,1-1.18,1.19,7.9,7.9,0,0,1-2.09.79,20.09,20.09,0,0,1-2.48.39,75.06,75.06,0,0,1-9.74.43c-2.66-.16-5.37-.43-8-.66l-.25,0h-.17l-.12,0-.26,0-.5-.09-1-.16a14.52,14.52,0,0,0-1.67-.18h0a14.15,14.15,0,0,0-1.62,0,2.91,2.91,0,0,0-2.12,1A4.25,4.25,0,0,0,50,42.55q.18.77.54.69c.1,0,.22-.11.38-.27a6,6,0,0,1,.71-.57,5.12,5.12,0,0,1,1.28-.6A7.86,7.86,0,0,1,55,41.47c.62,0,1.24,0,1.84.06.8,0,.45,0,3.53.18a127,127,0,0,0,16.22.12,23.34,23.34,0,0,0,2.88-.45,10.9,10.9,0,0,0,2.36-.87,10,10,0,0,0,.92-.58,4.08,4.08,0,0,0,.59-.57,3.28,3.28,0,0,0,.6-2.45,1.89,1.89,0,0,0-.83-1.16c-.38-.25-.64-.33-.76-.24"/></g></g></svg>