<?xml version="1.0" encoding="utf-8"?>
<!-- Generator: Adobe Illustrator 25.2.0, SVG Export Plug-In . SVG Version: 6.00 Build 0)  -->
<svg version="1.1" id="Capa_2_1_" xmlns="http://www.w3.org/2000/svg" xmlns:xlink="http://www.w3.org/1999/xlink" x="0px" y="0px"
	 viewBox="0 0 800 317.5" style="enable-background:new 0 0 800 317.5;" xml:space="preserve">
<style type="text/css">
	.st0{fill:#862848;}
	.st1{fill:#EE7779;}
</style>
<g id="Capa_1-2">
	<path class="st0" d="M799.9,16V0l-50.5,0.1h0h-34.1l0.2,86.5L631.2,1.1v-1h-66.4c-9.8,0-17.8,8-17.8,17.8v40.4
		c36.1,5.3,63.8,36.3,63.8,73.9s-27.7,68.6-63.8,73.9v40.4c0,9.8,8,17.8,17.8,17.8h66.6l-0.2-85.6l84.4,85.5v0.1h66.6
		c9.8,0,17.8-8,17.8-17.8V17.9C800,17.3,800,16.6,799.9,16L799.9,16z"/>
	<path class="st0" d="M461.3,132.2c0-38,28.4-69.4,65.2-74.1V32.3l0,0V0l-50.5,0.1h0h-35.5l-40.4,40.4L359.7,0.1h-68.4
		c-9.8,0-17.8,8-17.8,17.8v228.6c0,9.8,8,17.8,17.8,17.8h13.3l0,0h32.3v0h21l-0.2-85.6l42.2,42.2h0.2l41.4-41.4l0.4,84.8h66.7
		c9.8,0,17.8-8,17.8-17.8v-40.2C489.7,201.6,461.3,170.2,461.3,132.2L461.3,132.2z"/>
	<path class="st1" d="M491.6,166c9.5,1.3,18.1,1.5,25.9,0.9c0.2-1,0.5-1.9,1.1-2.7c-11.7-19.6-11.7-40.3-8.4-56.7
		c-0.9-0.9-1.5-2-1.9-3.3c0-0.2,0-0.3-0.1-0.5c-12.3,0.9-21.4,4.4-23.9,5.5c-4.7,11-6,23.7-2.8,36.2
		C483.6,153.1,487.1,160.1,491.6,166L491.6,166z"/>
	<path class="st1" d="M487.2,103.5c7.7-2.6,15-4.1,21.8-4.7c0.9-1.7,2.4-3.1,4.4-3.7c3-9.2,6.4-15.9,7.8-18.5
		C506.2,80.9,494.3,90.9,487.2,103.5L487.2,103.5z"/>
	<path class="st1" d="M577,126.5c1.5-0.4,3-0.3,4.4,0.2c4.3-8,6.3-15,7.2-18.4c-10.3-23.5-35.5-37.5-61.2-33.2c-3.8,7-6.8,13.7-9,20
		c1.6,0.7,3,1.9,3.9,3.5c24,2.2,41.4,15.8,52.7,28.8C575.6,127.1,576.3,126.7,577,126.5L577,126.5z"/>
	<path class="st1" d="M573.6,138.8c-0.9-0.9-1.5-2-1.9-3.3c-0.4-1.6-0.3-3.1,0.3-4.5c-15.9-18.4-33.7-25.3-49.2-27
		c-0.6,2.7-2.6,4.9-5.5,5.7c-1,0.2-2,0.3-2.9,0.2c-4,21.7,0.8,38.8,8.1,51.4c0.2-0.1,0.3-0.1,0.5-0.2c3.5-0.9,7,0.8,8.5,3.9
		C551.7,160.3,565,149.8,573.6,138.8L573.6,138.8z"/>
	<path class="st1" d="M496.3,171.3c11.4,11.5,27.4,17.9,44.2,16.8c-5.3-4.1-9.8-8.3-13.6-12.6c0,0-0.1,0-0.1,0
		c-3.5,0.9-7-0.8-8.5-3.9C508.7,172.4,500.8,171.8,496.3,171.3L496.3,171.3z"/>
	<path class="st1" d="M591.2,115.1c-1.7,5.3-3.7,10.2-5.9,14.6c0.4,0.7,0.8,1.4,1,2.2c0.7,2.7-0.2,5.4-2.1,7.2
		c3,4.5,5.1,8.2,6.4,10.6c3.5-10.1,4.1-21.2,1.3-32.3C591.7,116.6,591.4,115.8,591.2,115.1L591.2,115.1z"/>
	<path class="st1" d="M579.7,142.5c-14,16.1-31.8,22.7-47.8,25.1c-0.3,1.2-0.9,2.3-1.7,3.2c5.8,7.9,11.8,13.2,14.9,15.6
		c1.3-0.1,2.7-0.3,4-0.6c17.5-3.1,31.6-13.9,39.6-28.3c-2.3-5.4-4.8-10.4-7.4-14.9C580.8,142.6,580.2,142.6,579.7,142.5L579.7,142.5
		z"/>
	<path class="st0" d="M252.7,0l-50.4,0.1h0H17.8C8,0.1,0,8.1,0,17.9v228.6c0,9.8,8,17.8,17.8,17.8h66.4v-42.8h84.1v42.8h52.3l0,0
		h32.3v-15.6c0.1-0.7,0.1-1.5,0.1-2.2V17.9c0-1.2-0.1-2.4-0.4-3.6L252.7,0L252.7,0z M168.3,125.1c0,4.9-4,8.9-8.9,8.9H93.1
		c-4.9,0-8.9-4-8.9-8.9V99c0-4.9,4-8.9,8.9-8.9h66.3c4.9,0,8.9,4,8.9,8.9C168.3,99,168.3,125.1,168.3,125.1z"/>
</g>
<g>
	<path class="st0" d="M30.4,310.9c-5,0-8.8-1.3-11.4-4c-2.6-2.7-4-6.3-4-11c0-4.9,1.3-8.7,3.8-11.5c2.6-2.7,6.4-4.1,11.5-4.1
		c1.8,0,3.4,0.1,4.8,0.4s2.8,0.6,4,1.1v5.4c-2.6-1.1-5.4-1.6-8.4-1.6c-3.4,0-5.8,0.8-7.3,2.5c-1.5,1.7-2.2,4.3-2.2,7.7
		c0,6.5,3.2,9.8,9.6,9.8c1.4,0,2.9-0.1,4.3-0.4c1.4-0.3,2.8-0.6,4.1-1.2v5.5c-1.3,0.4-2.6,0.7-4,1C33.8,310.7,32.2,310.9,30.4,310.9
		L30.4,310.9z"/>
	<path class="st0" d="M65.3,310.9c-9.6,0-14.4-5.1-14.4-15.2c0-5.4,1.2-9.4,3.6-11.8c2.4-2.4,6-3.6,10.8-3.6s8.4,1.2,10.8,3.6
		c2.4,2.4,3.6,6.4,3.6,11.8C79.7,305.8,74.9,310.9,65.3,310.9z M65.3,305.6c2.8,0,4.8-0.8,6.1-2.4s2-4.1,2-7.4c0-3.7-0.6-6.3-2-7.9
		c-1.3-1.5-3.4-2.3-6.1-2.3c-2.8,0-4.8,0.8-6.1,2.3s-2,4.1-2,7.9c0,3.3,0.6,5.8,2,7.4C60.5,304.8,62.5,305.6,65.3,305.6z"/>
	<path class="st0" d="M93.1,310.4v-29.7h5.4l14,19.8v-19.8h6.2v29.7h-5.4l-14-19.8v19.8C99.3,310.4,93.1,310.4,93.1,310.4z"/>
	<path class="st0" d="M142.3,310.9c-1.9,0-3.7-0.1-5.3-0.4c-1.6-0.3-3.1-0.7-4.3-1.2v-5.5c1.3,0.6,2.8,1,4.4,1.3
		c1.6,0.3,3.1,0.5,4.6,0.5c2.1,0,3.7-0.2,4.7-0.6c1-0.4,1.5-1.3,1.5-2.7c0-0.9-0.2-1.6-0.6-2.1c-0.4-0.5-1.2-1-2.2-1.4
		c-1.1-0.4-2.6-0.9-4.5-1.4c-3.1-0.9-5.3-1.9-6.5-3.2c-1.3-1.3-1.9-3.1-1.9-5.3c0-2.7,1-4.8,3-6.3c2-1.5,4.9-2.2,8.7-2.2
		c1.8,0,3.4,0.1,5,0.4c1.5,0.2,2.8,0.5,3.7,0.9v5.5c-2.5-1-5.1-1.4-7.9-1.4c-1.9,0-3.5,0.2-4.6,0.6c-1.1,0.4-1.7,1.3-1.7,2.6
		c0,0.8,0.2,1.4,0.6,1.8c0.4,0.5,1.1,0.9,2,1.2c1,0.4,2.3,0.8,4.1,1.2c2.4,0.6,4.3,1.4,5.6,2.3c1.3,0.9,2.2,1.9,2.7,3
		c0.5,1.1,0.8,2.4,0.8,3.8c0,2.6-1,4.7-3,6.2C149.4,310.1,146.3,310.9,142.3,310.9L142.3,310.9z"/>
	<path class="st0" d="M180.3,310.9c-4.1,0-7.3-1-9.7-3c-2.4-2-3.6-4.9-3.6-8.6v-18.5h6.2v18c0,2.3,0.6,4,1.8,5.1
		c1.2,1.1,3,1.7,5.2,1.7c2.2,0,4-0.6,5.2-1.7s1.8-2.8,1.8-5.1v-18h6.2v18.5c0,3.8-1.2,6.7-3.5,8.6
		C187.6,309.9,184.4,310.9,180.3,310.9z"/>
	<path class="st0" d="M207.8,310.4v-29.7h6.2v24.9h14.6v4.8L207.8,310.4L207.8,310.4z"/>
	<path class="st0" d="M244.4,310.4v-24.9h-9.1v-4.8h24.4v4.8h-9.1v24.9H244.4L244.4,310.4z"/>
	<path class="st0" d="M285,310.9c-9.6,0-14.4-5.1-14.4-15.2c0-5.4,1.2-9.4,3.6-11.8c2.4-2.4,6-3.6,10.8-3.6s8.3,1.2,10.8,3.6
		c2.4,2.4,3.6,6.4,3.6,11.8C299.4,305.8,294.6,310.9,285,310.9z M285,305.6c2.8,0,4.8-0.8,6.1-2.4c1.3-1.6,2-4.1,2-7.4
		c0-3.7-0.6-6.3-2-7.9c-1.3-1.5-3.4-2.3-6.1-2.3s-4.8,0.8-6.1,2.3s-2,4.1-2,7.9c0,3.3,0.6,5.8,2,7.4
		C280.2,304.8,282.2,305.6,285,305.6z"/>
	<path class="st0" d="M312.8,310.4v-29.7H327c3.4,0,5.9,0.9,7.5,2.7c1.6,1.8,2.4,4.2,2.4,7.3c0,2-0.5,3.7-1.5,5.2
		c-1,1.4-2.5,2.5-4.4,3.1c0.5,0.4,0.9,0.8,1.2,1.3c0.3,0.5,0.6,1.1,0.9,1.8l3.6,8.3h-6.4l-3.5-8c-0.3-0.7-0.6-1.1-1-1.4
		c-0.4-0.3-1-0.4-1.8-0.4H319v9.8L312.8,310.4L312.8,310.4z M319,295.4h6.4c1.6,0,2.9-0.4,3.8-1.1c0.9-0.7,1.4-1.9,1.4-3.7
		c0-1.7-0.4-2.9-1.2-3.6c-0.8-0.8-2-1.1-3.6-1.1H319L319,295.4L319,295.4z"/>
	<path class="st0" d="M349.1,310.4l11.3-29.7h6.8l11.3,29.7h-6.4l-2.8-7.1h-10.9l-2.8,7.1H349.1L349.1,310.4z M359.3,298.5h9.1
		l-4.6-11.9L359.3,298.5z"/>
	<path class="st0" d="M411.4,310.4v-29.7h6.2v29.7H411.4z"/>
	<path class="st0" d="M432.1,310.4v-29.7h5.4l14,19.8v-19.8h6.2v29.7h-5.4l-14-19.8v19.8H432.1z"/>
	<path class="st0" d="M472.2,310.4v-29.7H493v4.8h-14.6v7.6h12.9v4.8h-12.9v12.4H472.2z"/>
	<path class="st0" d="M518.4,310.9c-9.6,0-14.4-5.1-14.4-15.2c0-5.4,1.2-9.4,3.6-11.8c2.4-2.4,6-3.6,10.8-3.6
		c4.8,0,8.3,1.2,10.8,3.6c2.4,2.4,3.6,6.4,3.6,11.8C532.8,305.8,528,310.9,518.4,310.9z M518.4,305.6c2.8,0,4.8-0.8,6.1-2.4
		c1.3-1.6,2-4.1,2-7.4c0-3.7-0.6-6.3-2-7.9c-1.3-1.5-3.4-2.3-6.1-2.3c-2.8,0-4.8,0.8-6.1,2.3s-2,4.1-2,7.9c0,3.3,0.6,5.8,2,7.4
		C513.6,304.8,515.6,305.6,518.4,305.6z"/>
	<path class="st0" d="M546.2,310.4v-29.7h14.2c3.4,0,5.9,0.9,7.5,2.7s2.4,4.2,2.4,7.3c0,2-0.5,3.7-1.5,5.2c-1,1.4-2.5,2.5-4.4,3.1
		c0.5,0.4,0.9,0.8,1.2,1.3c0.3,0.5,0.6,1.1,0.9,1.8l3.6,8.3h-6.4l-3.5-8c-0.3-0.7-0.6-1.1-1-1.4c-0.4-0.3-1-0.4-1.8-0.4h-4.9v9.8
		L546.2,310.4L546.2,310.4z M552.4,295.4h6.4c1.6,0,2.9-0.4,3.8-1.1c0.9-0.7,1.4-1.9,1.4-3.7c0-1.7-0.4-2.9-1.2-3.6
		c-0.8-0.8-2-1.1-3.6-1.1h-6.8L552.4,295.4L552.4,295.4z"/>
	<path class="st0" d="M583.6,310.4v-29.7h6.3l8.7,17.8l8.7-17.8h6.2v29.7h-6.2v-19.3l-6.9,14.2h-3.6l-7-14.2v19.3H583.6L583.6,310.4
		z"/>
	<path class="st0" d="M626.2,310.4l11.3-29.7h6.8l11.3,29.7h-6.4l-2.8-7.1h-10.9l-2.8,7.1H626.2L626.2,310.4z M636.4,298.5h9.1
		l-4.6-11.9L636.4,298.5z M638.2,278.7l3.7-8.6h5.4l-4.1,8.6H638.2L638.2,278.7z"/>
	<path class="st0" d="M671.9,310.4v-24.9h-9.1v-4.8h24.4v4.8h-9.1v24.9H671.9z"/>
	<path class="st0" d="M699.5,310.4v-29.7h6.2v29.7H699.5z"/>
	<path class="st0" d="M734.4,310.9c-5,0-8.8-1.3-11.4-4c-2.6-2.7-4-6.3-4-11c0-4.9,1.3-8.7,3.8-11.5c2.6-2.7,6.4-4.1,11.5-4.1
		c1.8,0,3.4,0.1,4.8,0.4s2.8,0.6,4,1.1v5.4c-2.6-1.1-5.4-1.6-8.4-1.6c-3.4,0-5.8,0.8-7.3,2.5c-1.5,1.7-2.2,4.3-2.2,7.7
		c0,6.5,3.2,9.8,9.6,9.8c1.4,0,2.9-0.1,4.3-0.4c1.4-0.3,2.8-0.6,4.1-1.2v5.5c-1.3,0.4-2.6,0.7-4,1
		C737.8,310.7,736.2,310.9,734.4,310.9L734.4,310.9z"/>
	<path class="st0" d="M755.6,310.4l11.3-29.7h6.8l11.3,29.7h-6.4l-2.8-7.1h-10.9l-2.8,7.1H755.6L755.6,310.4z M765.8,298.5h9.1
		l-4.6-11.9L765.8,298.5z"/>
</g>
</svg>
