<?xml version="1.0" encoding="UTF-8"?><svg id="Capa_2" xmlns="http://www.w3.org/2000/svg" xmlns:xlink="http://www.w3.org/1999/xlink" viewBox="0 0 574.36 172.73"><defs><style>.cls-1{fill:#fff;}.cls-2{fill:#e59dc1;}.cls-3{fill:#a9a1cb;}.cls-4{fill:url(#Degradado_sin_nombre_150);}.cls-5{fill:url(#Degradado_sin_nombre_150-2);}.cls-6{fill:#89a4d1;}</style><linearGradient id="Degradado_sin_nombre_150" x1="62.92" y1="150.85" x2="416.55" y2="150.85" gradientUnits="userSpaceOnUse"><stop offset="0" stop-color="#29abe2"/><stop offset=".04" stop-color="#3aa9de"/><stop offset=".17" stop-color="#6ca5d5"/><stop offset=".31" stop-color="#97a2ce"/><stop offset=".44" stop-color="#ba9fc8"/><stop offset=".58" stop-color="#d69dc3"/><stop offset=".72" stop-color="#e99cbf"/><stop offset=".86" stop-color="#f59bbd"/><stop offset="1" stop-color="#f99bbd"/></linearGradient><linearGradient id="Degradado_sin_nombre_150-2" x1="0" y1="77.5" x2="574.36" y2="77.5" xlink:href="#Degradado_sin_nombre_150"/></defs><g id="Capa_1-2"><rect class="cls-4" x="62.92" y="128.97" width="353.63" height="43.77" rx="13.91" ry="13.91"/><path class="cls-1" d="m92.61,143.19v7.46h11.84v3.85h-11.84v9.38h-4.55v-24.51h17.89v3.82h-13.34Z"/><path class="cls-1" d="m115.33,151.63c0-7.25,5.6-12.61,13.2-12.61s13.2,5.32,13.2,12.61-5.6,12.61-13.2,12.61-13.2-5.36-13.2-12.61Zm21.82,0c0-5.01-3.68-8.61-8.61-8.61s-8.61,3.61-8.61,8.61,3.68,8.62,8.61,8.62,8.61-3.61,8.61-8.62Z"/><path class="cls-1" d="m158.19,143.23h-8.12v-3.85h20.8v3.85h-8.12v20.66h-4.55v-20.66Z"/><path class="cls-1" d="m179.2,151.63c0-7.25,5.6-12.61,13.2-12.61s13.2,5.32,13.2,12.61-5.6,12.61-13.2,12.61-13.2-5.36-13.2-12.61Zm21.82,0c0-5.01-3.68-8.61-8.61-8.61s-8.61,3.61-8.61,8.61,3.68,8.62,8.61,8.62,8.61-3.61,8.61-8.62Z"/><path class="cls-1" d="m234.17,151.35h4.31v9.77c-2.56,2.07-6.13,3.12-9.6,3.12-7.6,0-13.2-5.29-13.2-12.61s5.6-12.61,13.27-12.61c4.1,0,7.53,1.37,9.84,3.99l-2.87,2.8c-1.93-1.93-4.13-2.8-6.76-2.8-5.22,0-8.89,3.54-8.89,8.61s3.68,8.62,8.86,8.62c1.75,0,3.47-.35,5.04-1.26v-7.63Z"/><path class="cls-1" d="m267.5,163.89l-5.01-7.18c-.32.04-.63.04-.95.04h-5.53v7.14h-4.55v-24.51h10.09c6.44,0,10.44,3.29,10.44,8.72,0,3.71-1.89,6.44-5.22,7.74l5.64,8.05h-4.9Zm-6.16-20.66h-5.32v9.77h5.32c3.99,0,6.06-1.82,6.06-4.9s-2.07-4.87-6.06-4.87Z"/><path class="cls-1" d="m299.96,158.21h-12.26l-2.42,5.67h-4.69l11.03-24.51h4.48l11.07,24.51h-4.76l-2.45-5.67Zm-1.51-3.57l-4.62-10.72-4.59,10.72h9.21Z"/><path class="cls-1" d="m321.84,143.19v7.46h11.84v3.85h-11.84v9.38h-4.55v-24.51h17.89v3.82h-13.34Z"/><path class="cls-1" d="m350.66,132.58h5.15l-6.09,4.8h-3.78l4.73-4.8Zm-4.06,6.79h4.55v24.51h-4.55v-24.51Z"/><path class="cls-1" d="m380.66,158.21h-12.26l-2.42,5.67h-4.69l11.03-24.51h4.48l11.07,24.51h-4.76l-2.45-5.67Zm-1.51-3.57l-4.62-10.72-4.59,10.72h9.21Z"/><path class="cls-5" d="m572.99,64.31c-3.75-8.98-12.41-11.02-21.1-8.49-10.78,3.13-19.1,12.19-27.29,19.38-7.77,6.82-15.61,12.87-24.64,16.37-1.01.37-2.02.72-3.04,1.07-2.87.9-5.87,1.53-9.02,1.85-4.7-7-12.36-12.03-20.76-14.29,5.89-4.02,11.58-9.21,13.66-15.58,1.18-3.62.66-7.1-1.64-10.15-2.6-3.45-6.15-4.81-10.43-4.68-7.87.24-15.62,4.4-20.6,10.42-2.6,3.14-8.82,13.15-4.12,16.44-3.67,7.53-8.02,15.06-14.02,20.98-3.01,2.97-7.41,6.03-10.9,2.13-2.48-2.77-4.1-6.55-5.15-10.07-2.35-7.91-1.14-16.13,1.47-23.8,7.38,4.22,18.5,1.09,21.34-7.5,1.55-4.69-.92-9.03-5.25-11.01-5.4-2.47-11.87-1.22-16.73,1.87-10.46,6.67-15.28,21.09-14.33,33.05.15,1.83.48,3.74.99,5.66-.88,2.9-1.91,5.74-3.21,8.45-.74,1.55-1.62,3.11-2.91,4.27-1.76,1.57-2.99,1.47-4.19-.37-1.58-2.41-2.21-5.39-2.63-8.19-2.2-14.74.64-29.03,2.39-43.62.31-2.55-4.15-3.34-5.86-3.34-2.39,0-5.27.76-5.86,3.34-2.1,9.27-3.44,18.92-3.47,28.43,0,.36,0,.73,0,1.1-5.36,2.77-11.3,3.79-17.37,3.83,3.77-10.12,5.65-21.01,5.93-30.8.38-13.46-2.35-28.38-10.29-39.49-3.21-4.48-7.11-9.76-12.73-11.18-5.57-1.41-10.82,1.32-14.55,5.35-5.03,5.44-8.26,12.55-10.69,19.47-2.68,7.63-4.53,15.55-5.84,23.53-.12.75-.24,1.51-.35,2.26.06-14.58,1.12-29.1,2.33-43.64.38-4.57-11.07-4.58-11.85,0-2.86,16.89-3.45,34.21-3.02,51.31.16,6.17.51,12.38,1.1,18.54-.41.15-.82.31-1.23.48-2.91,1.23-5.14,3.12-6.73,5.41-.13.11-.22.24-.26.4,0,0,0,0,0,0-2.09,3.2-2.99,7.12-2.83,11.08-.92,3.12-2,6.19-3.4,9.1-.74,1.55-1.61,3.11-2.91,4.26-1.76,1.57-2.99,1.47-4.19-.37-1.57-2.41-2.21-5.39-2.63-8.19-2.2-14.73.64-29.02,2.38-43.6.3-2.55-4.15-3.34-5.86-3.34-2.39,0-5.27.76-5.86,3.34-.34,1.51-.66,3.03-.96,4.56-.18.5-.36,1.01-.54,1.51-.53-.34-1.09-.65-1.69-.93-5.14-2.42-11.48-2.38-16.76-.4-9.58,3.61-15.7,12.63-17.83,22.36-.88,4.03-1,9.15,0,13.94-.77,2.34-1.64,4.64-2.7,6.84-.74,1.55-1.62,3.11-2.91,4.26-1.76,1.57-2.99,1.47-4.19-.37-1.57-2.41-2.21-5.39-2.63-8.19-2.2-14.73.64-29.02,2.38-43.6.31-2.55-4.15-3.34-5.86-3.34-2.39,0-5.27.76-5.86,3.34-2.1,9.27-3.44,18.91-3.47,28.42-.01,2.83.05,5.87.38,8.89-.7,2-1.49,3.97-2.36,5.91-1.82,4.04-4.18,8.87-8.33,10.97-8.08,4.08-10.27-9.85-11.25-15.02-3.31-17.58-2.52-35.79-1.24-53.54.78-10.78,2.04-21.51,2.98-32.28.44-4.98-12.44-5.17-13.1,0-2.74,21.56-4.79,43.7-3.73,65.44.25,5.07.69,10.24,1.67,15.28-1.2,4.74-2.59,9.45-4.69,13.83-.74,1.55-1.62,3.11-2.91,4.26-1.76,1.57-2.99,1.47-4.19-.37-1.57-2.41-2.21-5.39-2.63-8.19-2.2-14.73.64-29.02,2.38-43.6.31-2.55-4.15-3.34-5.86-3.34-2.39,0-5.27.76-5.86,3.34-2.1,9.27-3.44,18.91-3.47,28.42-.01,3.41.08,7.12.62,10.75-.81,2.62-1.72,5.2-2.78,7.71-.81,1.93-7.99,15.27-10.35,10.22-.95-2.03-.61-4.48-.46-6.62.22-3.16.83-6.28,1.15-9.43.61-5.99,1.47-11.97,1.58-17.99.11-5.77-.15-11.82-2.51-17.17-1.69-3.85-4.64-8.06-9.24-8.23-9.81-.37-14.61,12.44-16.86,19.93-.91,3.03-1.7,6.09-2.4,9.16-.02-.58-.05-1.17-.07-1.75-.2-4.31-.64-8.62-1.64-12.82-.9-3.76-1.83-8.03-4.19-11.19-4.3-5.74-12.17-5.11-16.38.3-4.17,5.37-6.04,12.45-7.46,19.12.11-3.11.29-6.22.58-9.32.48-5.05,1.42-10.03,1.91-15.08.36-3.74-9.1-3.91-10.1-.78-3.09,9.67-3.43,20.49-3.4,30.58.02,8.18.17,17,1.99,25.16-2.86,7.41-6.74,14.54-11.87,20.41-3.81,4.36-9.94,9.26-16.18,8.04-4.83-.95-7.27-6.19-9.35-10.13-7.65-14.46-11.16-34.49-1.07-48.8.94-1.33,2.8-3.14,4.37-4.57.03-.02.05-.04.07-.06.24-.15.48-.32.72-.47.21-.14.43-.26.65-.37,4.84-2.44.41-6.27-2.93-6.95-.31-.12-.88-.3-1.35-.43-.01,0-.02,0-.03,0-.44-.25-.89-.46-1.33-.72-.29-.17-.57-.36-.85-.55-.02-.06-1.05-.91-1.27-1.13-1.78-1.77-3.16-4.3-3.83-7.25-1.02-4.51-.4-9.44.53-13.9,2.34-11.18,7.55-21.73,14.85-30.48,1.41-1.69,3.33-4.15,5.7-4.41,3.1-.33,6.14,2.76,7.68,5.08,3.56,5.36,3.98,12.31,4.07,18.56.03,1.99-.03,3.97-.14,5.94h0s3,5.34,6.05.02c.16-2.39.24-4.79.2-7.19-.12-6.75-.78-14.47-4.97-20.06C45.32,1.92,38.8-.68,32.18.5,18.59,2.92,8.38,17.95,3.86,29.94c-3.75,9.95-6.45,23.04.17,32.44,1.84,2.6,4.3,4.81,7.1,6.45-7.62,7.48-10.29,19.91-9.76,29.98.63,11.75,5.09,22.58,12.94,31.43,7.92,8.93,21.86,10.36,31.57,3.66,5.37-3.71,9.24-9.22,12.5-14.79,1.18-2.01,2.25-4.08,3.25-6.17,1.73,1.67,6.74,1.1,7.06-1.32.4-3.05.52-6.15.51-9.26.68-7.17,1.48-14.33,2.81-21.41.87-4.6,1.94-9.2,3.46-13.63,1.32-3.85,3.17-8.9,6.67-11.29,5.26-3.6,5.61,6.31,5.78,9.42.24,4.56.21,9.14.16,13.71-.11,9.56-1.8,19.21-1.42,28.75.17,4.18,9.53,4.53,11.33,1.04.03-.05.06-.11.08-.17.12-.27.19-.56.21-.87.02-.23.03-.46.04-.69,1.52-10.55,3.21-21.03,6.13-31.31,1.4-4.95,3.13-10.04,6.02-14.33,1.18-1.75,3.86-5.35,6.24-5.52,3.16-.22,3.04,5.54,3.03,7.54-.06,12.11-2.52,23.9-3.31,35.93-.34,5.08.26,10.87,4.21,14.55,3.04,2.83,7.81,3.66,11.55,1.75,4.51-2.3,7.21-7.69,9.11-12.13.26-.6.5-1.21.74-1.82.9,2.33,2.14,4.49,3.83,6.34,5.01,5.51,13.6,5.51,18.23-.48,2.33-3.02,3.55-6.9,4.66-10.52.41,1.25.85,2.48,1.35,3.69,3.51,8.45,12.64,14.88,22.01,11.91,5.02-1.59,8.28-6.16,10.5-10.68.34-.69.66-1.39.98-2.1.93,3.03,2.34,5.85,4.46,8.18,5.01,5.51,13.6,5.51,18.23-.48,1.16-1.5,2.04-3.22,2.77-5.01,1.55,3.18,3.84,5.82,7.02,7.31,9.72,4.57,16.57-6.59,19.48-14.15,2.08-5.39,4.03-10.84,5.94-16.3-.07,1.53-.12,3.06-.13,4.59-.03,8.05.52,17.77,6.22,24.04,5.01,5.51,13.6,5.51,18.23-.48,1.31-1.69,2.26-3.66,3.04-5.7.7,1.81,1.63,3.53,2.78,5.07,7.63,10.28,21.69,12.63,33.45,9.37,15.8-4.38,26.25-17.35,32.36-32.41,6.29.02,12.57-.9,18.28-3.29.22,7.13,1.36,14.89,6.18,20.18,5.02,5.51,13.61,5.52,18.23-.48,1.53-1.98,2.58-4.33,3.43-6.74,3.57,7.42,10.01,13.32,18.83,11.78,6.33-1.1,11.22-6.13,15.05-10.94,4.4-5.54,7.9-11.69,10.94-18.06.38-.8-.47-1.31-1.49-1.44-1.54-1.47.8-6.71,1.34-7.9,1.28-2.8,3.06-5.33,5.22-7.51,4.09-4.14,10.71-8.04,16.77-7.31,3.95.47,5.1,3.51,4.48,7.03-.61,3.45-2.53,6.22-5.01,8.63-5.03,4.89-10.91,8.87-17.29,11.76-1.42.64-2.04,2.22-1.17,3.52,1.07,1.59,3.44,1.87,5.16,1.98,8.87.54,17.19,5.34,21.44,12.82-7.15,1.87-14.31,3.73-21.28,6.14-14.41,4.98-32.77,14.55-30.32,32.77.98,7.27,6.72,13.25,13.35,15.9,8.73,3.48,18.81,2.32,27.2-1.5,14.84-6.76,25.87-25.14,25.9-41.31,0-4.65-1.12-8.93-3.07-12.73,1.44-.41,14.28-2.84,26.61-10.95,10.05-6.9,17.78-13.77,27.93-20.49,7.88-5.21,19.84-8.17,23.34,1.17,2.4,6.41,1.49,12.95-4.52,16.22-5.54,3.01-15.07,2.77-14.27-6.06.11-1.27-1.79-1.27-1.95-.05-1.33,9.83,9.5,12.21,16.93,9.64,9.22-3.19,12.89-13.91,9.29-22.55Zm-151.71-10.1c1.83-2.31,4.9-5.09,7.81-3.8,5.23,2.32,3.62,8.81.18,11.96-3.86,3.54-9,3.66-12.62.14,1.19-2.93,2.68-5.85,4.63-8.31Zm-165.11,27.84c-2.65,7.48-4.66,16.55-9.93,22.71-1.2,1.41-3.09,3.65-4.91,2.29-1.26-.94-2.01-3.23-2.57-4.61-1.52-3.75-2.12-7.93-2.01-11.96.19-7.41,2.66-14.93,7.81-20.39,2.07-2.2,5.26-4.99,8.5-4.91,3.36.08,5.42,3.64,6.8,6.48-1.23,3.47-2.46,6.93-3.69,10.4Zm70.33,25.74c-8.93,5.4-19.86,6.1-27.97-1.27-4.3-3.9-6.71-9.42-6.39-15.22.48-1.88.92-3.77,1.36-5.67,1.12-2.36,2.89-4.21,5.15-5.5.14,1.3.29,2.61.45,3.91.55,4.31,1.18,8.64,2.04,12.9.28,1.41.54,2.9.85,4.4.24,1.08,1.69,6.76,6.01,6.13,4.77-.69,4.25-8.59,4.25-8.59h0c-.06-.65-.12-1.3-.17-1.94-.31-4.3-.69-8.6-1-12.9,0-.1-.01-.2-.02-.29.04-2.03.11-4.06.19-6.09,11.61-.1,23.23,3.69,34.67,5.47-4.22,9.65-10.29,19.14-19.43,24.66Zm27.49-63.19c-.18,12.37-2.36,24.55-7.01,36.04-.04.11-.09.21-.13.32-2.5-.37-4.98-.81-7.39-1.29-7.34-1.45-14.64-3.17-22.1-3.85-1.95-.18-3.96-.31-6-.36.27-5.46.71-10.91,1.32-16.34,1.47-13.02,3.98-26.19,9.13-38.3,2.31-5.42,5.26-11.12,9.64-15.17,2.32-2.14,5.43-4.08,8.69-2.94,2.93,1.03,5.48,3.75,6.97,6.39,2.91,5.17,4.35,11.25,5.4,17.04,1.11,6.06,1.57,12.3,1.49,18.45Zm121.31,84.54c-3.06,5.77-7.18,11.3-12.65,14.99-5.26,3.55-11.93,5.75-18.14,3.47-5.89-2.16-11.6-7.7-12.87-14.05-1.55-7.76,4.07-15.13,10.03-19.32,6.18-4.34,13.5-6.99,20.64-9.27,5.47-1.75,11.03-3.23,16.59-4.7.94,2.16,1.55,4.5,1.77,7,.65,7.66-1.83,15.18-5.37,21.87Z"/><circle class="cls-6" cx="149.97" cy="42.6" r="5.84"/><circle class="cls-3" cx="212.41" cy="42.6" r="5.84"/><circle class="cls-2" cx="386.9" cy="35.6" r="5.84"/></g></svg>