<?xml version="1.0" encoding="UTF-8"?><svg id="Capa_2" xmlns="http://www.w3.org/2000/svg" viewBox="0 0 890.15 211.02"><defs><style>.cls-1{fill:#ed6b8f;}.cls-2{fill:#878787;}</style></defs><g id="Capa_1-2"><g><path class="cls-2" d="M557.46,131.18l-21.8-56.1h-8.41l-18.41,52.05c-1.64,4.52-3.35,7.63-5.11,9.31-1.76,1.69-3.65,2.63-5.68,2.84v1.28h19.46v-1.28c-1.62-.23-3.01-.7-4.18-1.39-1.17-.69-1.76-2.03-1.76-4.03,0-1.29,.29-2.73,.88-4.32l4.62-13.25h19.38l5.42,13.78c.06,.18,.2,.65,.42,1.43,.22,.78,.4,1.51,.53,2.2,.13,.69,.2,1.23,.2,1.61,0,2.41-2.1,3.73-6.3,3.96v1.28h30.74v-1.28c-2.32-.38-4.27-1.11-5.86-2.18-1.59-1.07-2.97-3.05-4.14-5.92Zm-38.88-19.2l7.79-21.84,8.37,21.84h-16.16Z"/><path class="cls-1" d="M880.16,131.18l-21.8-56.1h-8.41l-18.41,52.05c-1.64,4.52-3.35,7.63-5.11,9.31-1.76,1.69-3.65,2.63-5.68,2.84v1.28h19.46v-1.28c-1.62-.23-3.01-.7-4.18-1.39-1.17-.69-1.76-2.03-1.76-4.03,0-1.29,.29-2.73,.88-4.32l4.62-13.25h19.38l5.42,13.78c.06,.18,.2,.65,.42,1.43,.22,.78,.4,1.51,.53,2.2,.13,.69,.2,1.23,.2,1.61,0,2.41-2.1,3.73-6.3,3.96v1.28h30.74v-1.28c-2.32-.38-4.27-1.11-5.86-2.18-1.59-1.07-2.97-3.05-4.14-5.92Zm-38.88-19.2l7.79-21.84,8.37,21.84h-16.16Z"/><path class="cls-2" d="M321.43,84.81c-2.92-3.05-6.47-5.44-10.66-7.16-4.18-1.72-8.95-2.58-14.29-2.58s-10.02,.84-14.2,2.53c-4.18,1.69-7.74,4.05-10.68,7.09-2.94,3.04-5.16,6.57-6.67,10.59-1.51,4.02-2.27,8.23-2.27,12.64,0,3.88,.66,7.78,1.98,11.71,1.32,3.93,3.35,7.53,6.1,10.79s6.28,5.88,10.61,7.86c4.33,1.98,9.4,2.97,15.21,2.97,5.4,0,10.24-.88,14.51-2.64,4.27-1.76,7.82-4.17,10.63-7.22,2.82-3.05,4.95-6.56,6.41-10.52,1.45-3.96,2.18-8.19,2.18-12.68s-.75-8.79-2.25-12.79c-1.5-4.01-3.71-7.54-6.63-10.59Zm-9.82,43.44c-2.19,6.27-7.17,9.4-14.95,9.4-5.55,0-9.7-1.86-12.46-5.57-2.76-3.71-4.47-7.71-5.13-11.98-.66-4.27-.99-8.61-.99-13.01,0-3.64,.33-7.49,.99-11.54,.66-4.05,2.36-7.88,5.11-11.47,2.75-3.6,6.91-5.39,12.48-5.39,4.96,0,8.8,1.58,11.52,4.73,2.72,3.16,4.51,6.95,5.39,11.38,.88,4.43,1.32,9.19,1.32,14.27,0,6.52-1.09,12.91-3.28,19.18Z"/><path class="cls-2" d="M382.17,76.97c3.26,.47,5.68,1.42,7.27,2.84,1.59,1.42,2.38,4.09,2.38,7.99v29.68l-39.59-41.79h-23.51v1.28c2.96,.44,6.41,2.55,10.35,6.34,.5,.47,1.06,1,1.67,1.59,.62,.59,1.06,1.01,1.32,1.28,.29,.29,.53,.5,.7,.62v42.93c.06,5.84-3.16,9.03-9.64,9.56v1.28h23.16v-1.28c-3.52-.26-5.94-1.48-7.24-3.63-1.31-2.16-1.96-4.76-1.96-7.82v-36.51l47.47,49.94h1.63v-53.46c0-1.94,.18-3.63,.53-5.06,.35-1.44,1.13-2.69,2.33-3.76s3.04-1.74,5.5-2v-1.28h-22.37v1.28Z"/><path class="cls-2" d="M407.63,76.88c2.73,0,4.75,.67,6.05,2,1.31,1.34,1.96,3.5,1.96,6.49v45.53c0,2.52-.5,4.55-1.5,6.08-1,1.53-3.17,2.29-6.52,2.29v1.28h30.47v-1.28h-.35c-2.32,0-4.04-.46-5.17-1.39-1.13-.93-1.83-1.96-2.09-3.1-.26-1.14-.4-2.44-.4-3.87v-45.53c0-2.52,.49-4.56,1.47-6.1,.98-1.54,3.16-2.31,6.54-2.31v-1.28h-30.47v1.19Z"/><path class="cls-2" d="M499.07,123.08c-5.99,7.99-13.06,11.98-21.23,11.98-3.38,0-6.8-.83-10.28-2.49-3.48-1.66-6.45-4.6-8.92-8.83-2.47-4.23-3.7-9.86-3.7-16.91,0-3.87,.35-7.52,1.06-10.94,.7-3.42,1.92-6.54,3.66-9.36,1.44-2.23,3.5-4.1,6.19-5.59,2.69-1.5,5.79-2.25,9.31-2.25,2.64,0,5.14,.41,7.51,1.23,2.36,.82,4.49,2.03,6.39,3.63,1.89,1.6,3.51,3.62,4.84,6.05,1.34,2.44,2.24,5.23,2.71,8.37h1.54v-23.16h-1.28c-.85,2.11-2.09,3.17-3.7,3.17-.88,0-2.26-.22-4.14-.66-5.34-1.5-10.28-2.25-14.8-2.25s-8.85,.61-12.81,1.83c-3.96,1.22-7.78,3.5-11.45,6.85-2.14,2.05-3.99,4.28-5.55,6.67-1.56,2.39-2.79,5.13-3.7,8.21-.91,3.08-1.36,6.41-1.36,10,0,4.17,.7,8.22,2.11,12.15,1.41,3.93,3.49,7.43,6.25,10.48,2.76,3.05,6.23,5.48,10.41,7.29,4.18,1.81,8.95,2.71,14.29,2.71,4.52,0,8.47-.59,11.85-1.76,3.38-1.17,6.19-2.64,8.45-4.4,2.26-1.76,4.37-3.79,6.34-6.08v-5.95Z"/><polygon class="cls-2" points="311.01 53.72 311.01 53.37 293.22 53.37 283.05 70.85 285.38 70.85 311.01 53.72"/><path class="cls-1" d="M658.19,80.35c-2-5.34-4.94-10.05-8.84-14.12-3.9-4.07-8.63-7.25-14.21-9.54-5.58-2.29-11.93-3.44-19.05-3.44s-13.36,1.13-18.94,3.38c-5.58,2.25-10.32,5.4-14.24,9.45-3.91,4.05-6.88,8.76-8.89,14.12-2.02,5.36-3.02,10.98-3.02,16.85,0,5.17,.88,10.37,2.64,15.62,1.76,5.25,4.47,10.04,8.13,14.38,3.66,4.35,8.38,7.84,14.15,10.48,5.77,2.64,12.54,3.96,20.29,3.96,7.2,0,13.65-1.17,19.35-3.52,5.7-2.35,10.42-5.56,14.18-9.63,3.76-4.07,6.61-8.75,8.54-14.03,1.94-5.28,2.91-10.92,2.91-16.91s-1-11.71-2.99-17.06Zm-21.93,43.8c-2.92,8.36-9.56,12.54-19.93,12.54-7.4,0-12.94-2.48-16.62-7.43-3.68-4.95-5.96-10.28-6.84-15.97-.88-5.7-1.32-11.48-1.32-17.35,0-4.85,.44-9.98,1.32-15.38,.88-5.4,3.15-10.5,6.81-15.3,3.66-4.79,9.21-7.19,16.65-7.19,6.61,0,11.73,2.1,15.35,6.31,3.62,4.21,6.02,9.27,7.19,15.18,1.17,5.91,1.76,12.25,1.76,19.02,0,8.69-1.46,17.21-4.37,25.57Z"/><path class="cls-1" d="M666.36,76.97h.53c3.26,0,5.36,.83,6.3,2.49,.94,1.66,1.41,3.6,1.41,5.84v50.86c0,6.84-2.38,10.26-7.13,10.26-3.2,0-5.55-1.56-7.05-4.67l-1.19,.44c.32,1.61,1.01,3.32,2.07,5.13,1.06,1.81,2.61,3.34,4.67,4.6,2.05,1.26,4.59,1.89,7.62,1.89,4.67,0,8.13-1.22,10.39-3.66,2.26-2.44,3.66-5.07,4.21-7.9,.54-2.83,.81-5.72,.81-8.65v-48.31c0-2.52,.45-4.54,1.34-6.05,.89-1.51,3.06-2.27,6.49-2.27v-1.28h-30.47v1.28Z"/><path class="cls-1" d="M746.41,132.26c-1.1,1.72-2.5,2.93-4.18,3.63-1.69,.7-3.87,1.06-6.54,1.06h-3.96c-5.58,0-8.37-2.7-8.37-8.1v-18.67h10.44c2.35,0,4.37,.48,6.08,1.45,1.7,.97,2.77,2.89,3.21,5.77h1.28v-19.02h-1.28c-.24,2.7-1.06,4.74-2.49,6.12-1.42,1.38-3.69,2.07-6.8,2.07h-10.44v-27.26h13.08c2.29,0,4.1,.42,5.42,1.25,1.32,.84,2.34,2.05,3.06,3.63,.72,1.59,1.37,3.6,1.96,6.03h1.28l-.53-14.53h-46.81v1.28h.44c3.29,0,5.39,.82,6.3,2.47,.91,1.64,1.36,3.66,1.36,6.03v45.45c0,2.5-.5,4.51-1.5,6.05-1,1.54-3.2,2.31-6.61,2.31v1.28h48.88l.97-15.59h-1.28c-.88,3.14-1.87,5.57-2.97,7.29Z"/><path class="cls-1" d="M825.26,109.16c0-4.46-.78-8.7-2.33-12.7-1.56-4.01-3.88-7.58-6.96-10.72-3.08-3.14-6.92-5.6-11.52-7.38-4.59-1.78-9.78-2.66-15.57-2.66h-35.45v1.28h.48c3.29,0,5.37,.83,6.25,2.49,.88,1.66,1.32,3.69,1.32,6.1v45.36c0,2.55-.49,4.59-1.47,6.1-.98,1.51-3.18,2.27-6.58,2.27v1.28h37.17c5.52,0,10.48-.81,14.88-2.44,4.4-1.63,8.07-3.9,11.01-6.8,2.94-2.91,5.13-6.24,6.58-10,1.45-3.76,2.18-7.81,2.18-12.15Zm-16.43,10.17c-.79,3.2-2.05,6.14-3.76,8.81-1.72,2.67-3.9,4.77-6.54,6.3-1.79,1-3.7,1.67-5.72,2-2.03,.34-4.32,.51-6.87,.51-2.85,0-4.98-.31-6.39-.95-1.41-.63-2.37-1.62-2.88-2.97-.51-1.35-.77-3.17-.77-5.46v-47.51c2.32-.5,4.4-.75,6.25-.75,5.2,0,9.61,.91,13.23,2.73,3.63,1.82,6.5,4.21,8.63,7.18,2.13,2.97,3.66,6.19,4.6,9.69,.94,3.49,1.41,7,1.41,10.52s-.4,6.71-1.19,9.91Z"/><path class="cls-2" d="M288.99,19.65c-.46-.96-1.08-1.98-1.86-3.06-.79-1.07-1.73-2.17-2.8-3.31s-2.12-2.15-3.13-3.05c-1.02-1.02-2.1-1.81-3.22-2.37-1.13-.57-2.04-.57-2.72,0-14.7,16.51-28.18,33.76-40.46,51.74-12.27,17.98-24.17,36.36-35.71,55.13-3.96,6.45-7.97,12.84-12.05,19.17-4.07,6.34-7.97,12.84-11.71,19.51-.46,.68-1.1,1.67-1.95,2.97-.84,1.3-1.75,2.63-2.71,3.98-.96,1.36-1.89,2.57-2.8,3.65-.91,1.07-1.62,1.69-2.12,1.86-.51,.17-.77-.26-.77-1.27s.51-2.89,1.53-5.6c2.71-7.92,5.49-15.41,8.31-22.48,2.83-7.06,5.77-14.02,8.82-20.86,3.06-6.85,6.19-13.74,9.42-20.7,3.22-6.95,6.59-14.28,10.1-21.97,3.5-7.69,7.15-15.92,10.94-24.68,3.78-8.77,7.77-18.41,11.96-28.92,.23-1.13-.24-2.6-1.01-4.58-2.25-5.8-6.68-9.84-8.13-11.07-1.45-1.23-2.86-2.24-4.26-3.02-1.41-.78-2.4-.93-2.98-.45-1.15,2.59-3.72,7.42-7.72,14.49-3.99,7.08-9,15.57-15.01,25.49-6.01,9.92-12.84,20.93-20.5,33.02-7.65,12.09-15.78,24.42-24.38,36.96-12.94,22.21-20.1,29.82-27.17,39.95-7.07,10.12-3.58,5.71-10.77,14.06-7.19,8.35-14.47,15.52-21.85,21.53-7.38,6.01-14.86,10.18-22.44,12.51-8.01,2.54-15.14,3.46-21.39,2.75-6.26-.71-11.61-2.49-16.04-5.37-4.44-2.87-7.94-6.61-10.5-11.19-2.57-4.58-4.21-9.56-4.92-14.92-.72-5.36-.41-10.84,.91-16.43,1.32-5.6,3.62-10.81,6.92-15.65,1.46-2.13,10.77-17.76,32.25-22.92,13.67-3.28,25.83-.34,33.62,4.36-17.54-13.4-27.56-12.78-35.31-11.32-8.67,1.63-15.73,4.88-21.86,9.49-6.14,4.6-11.04,9.86-14.73,15.75-3.69,5.9-6.2,12.23-7.55,18.98-1.34,6.76-1.58,13.37-.73,19.85s2.82,12.49,5.9,18.05c3.08,5.56,7.18,10.12,12.31,13.7,5.12,3.58,11.23,5.95,18.35,7.09,7.11,1.14,15.19,.44,24.24-2.11,6.64-1.88,13.08-4.82,19.29-8.8,6.22-3.99,12.2-8.64,17.93-13.97,5.73-5.33,11.28-11.22,16.64-17.68,5.35-6.46-.14,.58,4.75-6.18l50.84-75.37c3.3-5.07,6.58-10.14,9.82-15.24,5.98-9.38,12.13-18.74,18.43-28.08-3.09,6.75-6.31,13.71-9.68,20.95-4.58,9.84-9.05,19.65-13.41,29.43-4.36,9.78-8.37,19.2-12.05,28.25-3.67,9.05-6.56,17.22-8.65,24.51-2.1,7.3-3.2,13.43-3.31,18.41-.12,4.97,1.24,8.19,4.07,9.67,1.81,1.01,3.71,1.33,5.69,.93,1.97-.4,3.9-1.19,5.76-2.37,1.87-1.19,3.62-2.63,5.26-4.33,1.64-1.7,2.97-3.33,3.99-4.92,10.74-17.53,22.08-35.25,34.01-53.18,11.94-17.93,24.74-35.72,38.43-53.35-4.19,8.37-8.32,17.13-12.38,26.29-4.07,9.16-7.75,18.24-11.03,27.23-3.28,8.99-5.91,17.67-7.89,26.04-1.97,8.37-3.53,15.91-3.05,22.56,3.67,50.52,52.12,18.84,52.12,18.84-39.9,22.74-38.3-20.99-37.44-26.3,1.13-7.01,3.14-14.81,6.02-23.41,2.89-8.59,6.22-17.39,10.01-26.38,3.79-8.99,7.86-17.87,12.22-26.64,4.35-8.76,8.57-16.79,12.64-24.08,4.07-7.3,7.8-13.54,11.2-18.75,3.39-5.2,6.05-8.76,7.97-10.69,.11-.46-.06-1.16-.51-2.12Z"/><g><path class="cls-1" d="M281.34,187.9v-19.98h7.28c1.49,0,2.73,.23,3.73,.7,1,.46,1.78,1.12,2.36,1.97,.58,.85,.99,1.87,1.23,3.06,.24,1.19,.36,2.51,.36,3.96s-.12,2.83-.35,4.07-.64,2.34-1.22,3.28-1.36,1.66-2.35,2.17c-.99,.51-2.23,.77-3.74,.77h-7.31Zm2.78-2.41h4.47c1,0,1.82-.21,2.45-.64,.63-.42,1.12-1,1.46-1.74,.35-.73,.59-1.57,.73-2.51,.14-.94,.2-1.94,.2-3s-.07-2.01-.2-2.89c-.14-.88-.38-1.65-.73-2.31-.35-.66-.84-1.16-1.46-1.52-.63-.36-1.45-.54-2.45-.54h-4.47v15.14Z"/><path class="cls-1" d="M310.8,187.9v-19.98h2.78v19.98h-2.78Z"/><path class="cls-1" d="M334.64,188.19c-.62,0-1.33-.04-2.13-.12-.8-.08-1.59-.17-2.36-.29s-1.45-.21-2.03-.29l.23-2.26c.56,.06,1.22,.13,1.99,.22s1.51,.16,2.25,.22c.73,.06,1.36,.09,1.89,.09,1.33,0,2.32-.29,2.97-.87,.65-.58,.97-1.49,.97-2.73,0-.68-.13-1.21-.39-1.61-.26-.4-.7-.71-1.32-.96-.62-.24-1.45-.46-2.49-.65-1.43-.29-2.61-.64-3.54-1.04-.93-.41-1.61-.98-2.06-1.73-.45-.74-.67-1.75-.67-3.03,0-1.35,.27-2.44,.8-3.25,.53-.81,1.29-1.4,2.29-1.77,1-.37,2.16-.55,3.49-.55,.6,0,1.28,.03,2.04,.1,.76,.07,1.52,.15,2.26,.25,.74,.1,1.39,.19,1.93,.29l-.2,2.29c-.56-.08-1.21-.15-1.96-.22-.74-.07-1.46-.13-2.16-.19-.7-.06-1.26-.09-1.68-.09-1.33,0-2.33,.24-3,.71s-1,1.21-1,2.22c0,.77,.15,1.36,.44,1.77,.29,.41,.77,.73,1.45,.96,.68,.23,1.57,.48,2.67,.75,1.04,.23,1.94,.48,2.68,.75,.74,.27,1.36,.61,1.84,1.02s.84,.91,1.06,1.51c.22,.6,.33,1.35,.33,2.26,0,1.49-.27,2.69-.8,3.6-.53,.91-1.29,1.58-2.28,2-.99,.42-2.16,.64-3.51,.64Z"/><path class="cls-1" d="M355.49,187.9v-19.98h12.53v2.41h-9.74v6.26h8v2.35h-8v6.55h9.74v2.41h-12.53Z"/><path class="cls-1" d="M382.28,187.9v-19.98h4.58l7.19,16.88h.58v-16.88h2.78v19.98h-4.5l-7.31-16.91h-.55v16.91h-2.78Zm9.89-22.97c-.33,0-.72-.07-1.16-.22-.45-.14-.9-.32-1.36-.52-.46-.2-.88-.38-1.26-.54-.38-.15-.67-.23-.88-.23-.25,0-.59,.15-1.03,.46s-.81,.6-1.12,.87l-.55-1.83c.31-.37,.72-.74,1.23-1.12,.51-.38,.99-.57,1.44-.57,.37,0,.78,.07,1.23,.22,.45,.15,.9,.31,1.33,.51s.84,.37,1.2,.52c.37,.16,.67,.23,.9,.23,.21,0,.53-.14,.94-.42,.42-.28,.79-.56,1.12-.83l.55,1.83c-.29,.35-.68,.71-1.16,1.07s-.96,.55-1.42,.55Z"/><path class="cls-1" d="M411.02,187.9l5.36-19.98h5.54l5.37,19.98h-2.81l-1.31-4.79h-8.06l-1.31,4.79h-2.78Zm4.64-7.16h6.99l-2.78-10.5h-1.42l-2.78,10.5Z"/><path class="cls-1" d="M440.89,187.9v-19.98h7.28c1.49,0,2.73,.23,3.73,.7,1,.46,1.78,1.12,2.36,1.97,.58,.85,.99,1.87,1.23,3.06,.24,1.19,.36,2.51,.36,3.96s-.12,2.83-.35,4.07-.64,2.34-1.22,3.28-1.36,1.66-2.35,2.17c-.99,.51-2.23,.77-3.74,.77h-7.31Zm2.78-2.41h4.47c1,0,1.82-.21,2.45-.64,.63-.42,1.12-1,1.46-1.74,.35-.73,.59-1.57,.73-2.51,.14-.94,.2-1.94,.2-3s-.07-2.01-.2-2.89c-.14-.88-.38-1.65-.73-2.31-.35-.66-.84-1.16-1.46-1.52-.63-.36-1.45-.54-2.45-.54h-4.47v15.14Z"/><path class="cls-1" d="M477.69,188.19c-2.11,0-3.75-.38-4.92-1.15-1.17-.76-1.99-1.9-2.47-3.42s-.71-3.39-.71-5.61,.24-4.13,.73-5.67c.48-1.54,1.31-2.71,2.48-3.52,1.17-.81,2.8-1.22,4.89-1.22s3.69,.4,4.86,1.2c1.17,.8,2,1.98,2.48,3.52,.48,1.55,.73,3.44,.73,5.68s-.24,4.18-.71,5.7c-.47,1.52-1.3,2.64-2.47,3.38-1.17,.73-2.8,1.1-4.89,1.1Zm0-2.41c1.43,0,2.52-.28,3.26-.84s1.25-1.42,1.52-2.57c.27-1.15,.41-2.61,.41-4.36s-.14-3.18-.41-4.37c-.27-1.19-.78-2.09-1.54-2.71-.75-.62-1.84-.93-3.25-.93s-2.52,.31-3.26,.93c-.74,.62-1.26,1.52-1.54,2.7-.28,1.18-.42,2.64-.42,4.38s.14,3.13,.41,4.29c.27,1.16,.78,2.03,1.52,2.61,.74,.58,1.84,.87,3.29,.87Z"/><path class="cls-1" d="M500.28,187.9v-19.98h7.54c1.47,0,2.7,.21,3.68,.64,.99,.42,1.73,1.09,2.22,2,.49,.91,.74,2.1,.74,3.57s-.29,2.68-.86,3.68-1.46,1.71-2.65,2.12l3.65,7.97h-3.04l-3.28-7.37h-5.22v7.37h-2.78Zm2.78-9.71h4.79c.93,0,1.67-.17,2.22-.52,.55-.35,.94-.83,1.17-1.44,.23-.61,.35-1.3,.35-2.07,0-1.29-.3-2.26-.91-2.9-.61-.64-1.56-.96-2.86-.96h-4.76v7.89Z"/><path class="cls-1" d="M527.05,187.9l5.36-19.98h5.54l5.37,19.98h-2.81l-1.31-4.79h-8.06l-1.31,4.79h-2.78Zm4.64-7.16h6.99l-2.78-10.5h-1.42l-2.78,10.5Z"/><path class="cls-1" d="M572.35,187.9l5.36-19.98h5.54l5.37,19.98h-2.81l-1.31-4.79h-8.06l-1.31,4.79h-2.78Zm4.64-7.16h6.99l-2.78-10.5h-1.42l-2.78,10.5Z"/><path class="cls-1" d="M602.22,187.9v-19.98h2.78v17.55h8.5v2.44h-11.28Z"/><path class="cls-1" d="M628.43,187.9v-17.52h-5.89v-2.47h14.5v2.47h-5.83v17.52h-2.78Z"/><path class="cls-1" d="M647.11,187.9l5.36-19.98h5.54l5.37,19.98h-2.81l-1.31-4.79h-8.06l-1.31,4.79h-2.78Zm4.64-7.16h6.99l-2.78-10.5h-1.42l-2.78,10.5Z"/><path class="cls-1" d="M700.85,188.19c-1.51,0-2.75-.21-3.73-.64-.98-.43-1.74-1.07-2.28-1.93-.54-.86-.92-1.93-1.13-3.22-.21-1.29-.32-2.77-.32-4.45s.11-3.23,.32-4.52,.59-2.37,1.15-3.23c.55-.86,1.31-1.51,2.28-1.94,.97-.43,2.21-.65,3.74-.65,.68,0,1.36,.03,2.06,.1,.7,.07,1.35,.15,1.96,.26s1.14,.21,1.58,.3l-.12,2.29c-.41-.08-.91-.15-1.52-.22-.61-.07-1.23-.13-1.86-.19-.63-.06-1.2-.09-1.73-.09-1.04,0-1.89,.16-2.55,.46-.66,.31-1.17,.78-1.52,1.42-.36,.64-.6,1.45-.73,2.44-.13,.99-.19,2.17-.19,3.57s.06,2.52,.19,3.51c.13,.99,.36,1.79,.71,2.42,.35,.63,.86,1.09,1.52,1.39s1.53,.45,2.6,.45c.81,0,1.7-.05,2.65-.15,.96-.1,1.77-.2,2.45-.32l.09,2.32c-.46,.1-1.01,.19-1.64,.29s-1.29,.17-1.97,.23c-.69,.06-1.36,.09-2.02,.09Z"/><path class="cls-1" d="M727.67,188.19c-2.11,0-3.75-.38-4.92-1.15-1.17-.76-1.99-1.9-2.47-3.42s-.71-3.39-.71-5.61,.24-4.13,.73-5.67c.48-1.54,1.31-2.71,2.48-3.52,1.17-.81,2.8-1.22,4.89-1.22s3.69,.4,4.86,1.2c1.17,.8,2,1.98,2.48,3.52,.48,1.55,.73,3.44,.73,5.68s-.24,4.18-.71,5.7c-.47,1.52-1.3,2.64-2.47,3.38-1.17,.73-2.8,1.1-4.89,1.1Zm0-2.41c1.43,0,2.52-.28,3.26-.84s1.25-1.42,1.52-2.57c.27-1.15,.41-2.61,.41-4.36s-.14-3.18-.41-4.37c-.27-1.19-.78-2.09-1.54-2.71-.75-.62-1.84-.93-3.25-.93s-2.52,.31-3.26,.93c-.74,.62-1.26,1.52-1.54,2.7-.28,1.18-.42,2.64-.42,4.38s.14,3.13,.41,4.29c.27,1.16,.78,2.03,1.52,2.61,.74,.58,1.84,.87,3.29,.87Z"/><path class="cls-1" d="M756.01,188.19c-.62,0-1.33-.04-2.13-.12-.8-.08-1.59-.17-2.36-.29s-1.45-.21-2.03-.29l.23-2.26c.56,.06,1.22,.13,1.99,.22s1.51,.16,2.25,.22c.73,.06,1.36,.09,1.89,.09,1.33,0,2.32-.29,2.97-.87,.65-.58,.97-1.49,.97-2.73,0-.68-.13-1.21-.39-1.61-.26-.4-.7-.71-1.32-.96-.62-.24-1.45-.46-2.49-.65-1.43-.29-2.61-.64-3.54-1.04-.93-.41-1.61-.98-2.06-1.73-.45-.74-.67-1.75-.67-3.03,0-1.35,.27-2.44,.8-3.25,.53-.81,1.29-1.4,2.29-1.77,1-.37,2.16-.55,3.49-.55,.6,0,1.28,.03,2.04,.1,.76,.07,1.52,.15,2.26,.25,.74,.1,1.39,.19,1.93,.29l-.2,2.29c-.56-.08-1.21-.15-1.96-.22-.74-.07-1.46-.13-2.16-.19-.7-.06-1.26-.09-1.68-.09-1.33,0-2.33,.24-3,.71s-1,1.21-1,2.22c0,.77,.15,1.36,.44,1.77,.29,.41,.77,.73,1.45,.96,.68,.23,1.57,.48,2.67,.75,1.04,.23,1.94,.48,2.68,.75,.74,.27,1.36,.61,1.84,1.02s.84,.91,1.06,1.51c.22,.6,.33,1.35,.33,2.26,0,1.49-.27,2.69-.8,3.6-.53,.91-1.29,1.58-2.28,2-.99,.42-2.16,.64-3.51,.64Z"/><path class="cls-1" d="M780.68,187.9v-17.52h-5.89v-2.47h14.5v2.47h-5.83v17.52h-2.78Z"/><path class="cls-1" d="M809.68,188.19c-1.51,0-2.8-.21-3.87-.64-1.07-.43-1.89-1.11-2.45-2.06-.56-.95-.84-2.21-.84-3.8v-13.78h2.78v13.86c0,1.41,.39,2.43,1.16,3.06,.77,.63,1.85,.94,3.22,.94,1.45,0,2.56-.31,3.34-.94,.77-.63,1.16-1.65,1.16-3.06v-13.86h2.78v13.78c0,1.55-.28,2.8-.84,3.77s-1.38,1.66-2.46,2.09c-1.08,.42-2.41,.64-3.97,.64Z"/><path class="cls-1" d="M832.13,187.9v-19.98h7.54c1.47,0,2.7,.21,3.68,.64,.99,.42,1.73,1.09,2.22,2,.49,.91,.74,2.1,.74,3.57s-.29,2.68-.86,3.68-1.46,1.71-2.65,2.12l3.65,7.97h-3.04l-3.28-7.37h-5.22v7.37h-2.78Zm2.78-9.71h4.79c.93,0,1.67-.17,2.22-.52,.55-.35,.94-.83,1.17-1.44,.23-.61,.35-1.3,.35-2.07,0-1.29-.3-2.26-.91-2.9-.61-.64-1.56-.96-2.86-.96h-4.76v7.89Z"/><path class="cls-1" d="M858.9,187.9l5.36-19.98h5.54l5.37,19.98h-2.81l-1.31-4.79h-8.06l-1.31,4.79h-2.78Zm4.64-7.16h6.99l-2.78-10.5h-1.42l-2.78,10.5Z"/></g></g></g></svg>